<svg xmlns="http://www.w3.org/2000/svg" width="37.058" height="34.073" viewBox="0 0 37.058 34.073"><defs><style>.a{fill:#fff;}.b{opacity:0.27;}.c{fill:none;}</style></defs><g transform="translate(0 1.621)"><g transform="translate(0 19.38)"><path class="a" d="M1150.722,2537.993a1.752,1.752,0,0,1-1.531-.9l-2.825-5.062a1.757,1.757,0,0,1,.559-2.316c1.578-1.04,6.9-4.081,9.187-4.155,1.6-.053,5.556-.247,8-.37a2.83,2.83,0,0,1,1.319.261,2.4,2.4,0,0,1,1.355,2.17v.025l4.009-.532,7.846-2.127a2.219,2.219,0,0,1,1.638,4.085c-3.335,1.852-11.618,4.462-15.576,5.318-.793.17-1.743.341-2.781.529-3.4.612-7.643,1.372-10.376,2.863A1.712,1.712,0,0,1,1150.722,2537.993Zm13.528-11.218h-.061c-2.451.123-6.417.316-8.025.37-1.552.051-6.062,2.378-8.367,3.9a.162.162,0,0,0-.045.217l2.826,5.062a.156.156,0,0,0,.207.068c2.959-1.614,7.338-2.4,10.856-3.032,1.018-.184,1.949-.351,2.726-.518,3.775-.815,11.978-3.4,15.141-5.154a.61.61,0,0,0,.306-.418.626.626,0,0,0-.126-.521.642.642,0,0,0-.648-.223l-7.934,2.145-4.926.659a2.476,2.476,0,0,1-.762.6,2.121,2.121,0,0,1-.874.234l-6.221.257a.77.77,0,0,1-.827-.76.794.794,0,0,1,.76-.826l6.219-.256a.553.553,0,0,0,.226-.065.948.948,0,0,0,.5-.868.822.822,0,0,0-.448-.756A1.157,1.157,0,0,0,1164.25,2526.775Z" transform="translate(-1146.144 -2524.921)"/></g><g transform="translate(19.281 19.858)"><path class="a" d="M1169.239,2528.729l-.635-1.456,2.329-1.018a.788.788,0,1,0-.584-1.464l-6.589,2.751-.611-1.466,6.588-2.749a2.374,2.374,0,1,1,1.812,4.39Z" transform="translate(-1163.15 -2525.146)"/></g><path class="a" d="M1172.88,2512.417a.787.787,0,0,0-.416-.815l-5.527-2.8-5.2-2.34a.8.8,0,0,0-.844.124l-5.792,5.014a.792.792,0,0,0-.259.754.6.6,0,0,0,0,.093c0,.022-.012.04-.012.062v10.354l6.484,3.227,11.587-3.109v-10.472C1172.9,2512.479,1172.883,2512.451,1172.88,2512.417Zm-11.331-4.3,4.61,2.076-4.884,4.241-4.46-2.218Zm.639,10.5,1.752-.431v1.207l-1.752.431Zm-5.774-4.828,4.187,2.083v8.091l-4.187-2.083Zm12.573,8.6-1.264.339v-5.549l1.264-.385Zm1.588-.427v-7.309l-4.44,1.35v7.151l-3.948,1.059v-2.752l3.34-.821v-4.477l-3.34.821v-1.239l5.213-4.526,3.909,1.621v8.924Z" transform="translate(-1144.982 -2508.019)"/><g class="b" transform="translate(0.058)"><rect class="c" width="37" height="32"/></g></g></svg>